<svg xmlns="http://www.w3.org/2000/svg" viewBox="0 0 488.89 507.69"><defs><style>.cls-1{fill:#ffd618;}</style></defs><title>Zasób 1</title><g id="Warstwa_2" data-name="Warstwa 2"><g id="icons"><path class="cls-1" d="M488.89,259.85v-12a5,5,0,0,0-5-5H370.6a5,5,0,0,1-5-4.43,128.68,128.68,0,0,0-8.87-34.11,5,5,0,0,1,2-6.21l98.7-59.17a5,5,0,0,0,1.71-6.86l-6.17-10.29a5,5,0,0,0-6.85-1.72l-97.95,58.72a5,5,0,0,1-6.6-1.34A125.43,125.43,0,0,0,318,153a5,5,0,0,1-1.31-6.37l57.21-102.9a5,5,0,0,0-1.94-6.8l-10.49-5.83a5,5,0,0,0-6.8,1.94L297.88,135.09a5,5,0,0,1-6.36,2.15,117.86,117.86,0,0,0-31.7-8.77,5,5,0,0,1-4.38-5V5a5,5,0,0,0-5-5h-12a5,5,0,0,0-5,5V123.51a5,5,0,0,1-4.37,5,117.86,117.86,0,0,0-31.7,8.77,5,5,0,0,1-6.36-2.15L134.27,33a5,5,0,0,0-6.8-1.94L117,36.92a5,5,0,0,0-1.94,6.8l57.21,102.9a5,5,0,0,1-1.31,6.37,125.43,125.43,0,0,0-23.7,24.45,5,5,0,0,1-6.6,1.34L42.69,120.06a5,5,0,0,0-6.86,1.72l-6.17,10.29a5,5,0,0,0,1.72,6.86l98.7,59.17a5,5,0,0,1,2,6.21,128.3,128.3,0,0,0-8.87,34.11,5,5,0,0,1-5,4.43H5a5,5,0,0,0-5,5v12a5,5,0,0,0,5,5H118.29a5,5,0,0,1,5,4.42,128.47,128.47,0,0,0,8.87,34.12,5,5,0,0,1-2,6.2l-98.7,59.17a5,5,0,0,0-1.72,6.86l6.17,10.29a5,5,0,0,0,6.86,1.72l97.95-58.72a5,5,0,0,1,6.6,1.35,125.66,125.66,0,0,0,23.7,24.44,5,5,0,0,1,1.31,6.37L115,464a5,5,0,0,0,1.94,6.8l10.49,5.83a5,5,0,0,0,6.8-1.94L191,372.6a5,5,0,0,1,6.36-2.15,117.5,117.5,0,0,0,31.7,8.77,5,5,0,0,1,4.37,5V502.69a5,5,0,0,0,5,5h12a5,5,0,0,0,5-5V384.18a5,5,0,0,1,4.38-5,117.5,117.5,0,0,0,31.7-8.77,5,5,0,0,1,6.36,2.15l56.74,102.06a5,5,0,0,0,6.8,1.94l10.49-5.83a5,5,0,0,0,1.94-6.8l-57.21-102.9A5,5,0,0,1,318,354.7a125.66,125.66,0,0,0,23.7-24.44,5,5,0,0,1,6.6-1.35l97.95,58.72a5,5,0,0,0,6.85-1.72l6.17-10.29a5,5,0,0,0-1.71-6.86l-98.7-59.17a5,5,0,0,1-2-6.2,128.85,128.85,0,0,0,8.87-34.12,5,5,0,0,1,5-4.42H483.89A5,5,0,0,0,488.89,259.85ZM244.44,358.23c-55.2,0-100.11-46.83-100.11-104.38s44.91-104.39,100.11-104.39,100.12,46.83,100.12,104.39S299.65,358.23,244.44,358.23Z"/></g></g></svg>