<?xml version="1.0" encoding="utf-8"?>
<!-- Generator: Adobe Illustrator 23.0.3, SVG Export Plug-In . SVG Version: 6.00 Build 0)  -->
<svg version="1.1" id="Warstwa_1" xmlns="http://www.w3.org/2000/svg" xmlns:xlink="http://www.w3.org/1999/xlink" x="0px" y="0px"
	 viewBox="0 0 766.5 528.66" style="enable-background:new 0 0 766.5 528.66;" xml:space="preserve">
<style type="text/css">
	.st0{fill:#FFD618;}
	.st1{fill:#00AFD3;}
</style>
<title>Zasób 2</title>
<path class="st0" d="M190.42,341.69c-27.7-18.59-46.09-51-46.09-87.84c0-57.56,44.91-104.39,100.11-104.39c47.85,0,88,35.18,97.8,82
	c0.58,2.7,3.23,4.42,5.93,3.84c0.32-0.07,0.63-0.17,0.93-0.29c3.56-1.54,7.2-2.91,10.9-4.08c2.47-0.79,3.93-3.33,3.36-5.86
	c-1.6-7.1-3.8-14.05-6.58-20.78c-0.95-2.27-0.1-4.9,2-6.19l98.7-59.17c2.37-1.42,3.13-4.49,1.71-6.86l-6.17-10.29
	c-1.42-2.36-4.48-3.13-6.85-1.72l-97.95,58.72c-2.22,1.32-5.08,0.74-6.6-1.34c-6.73-9.18-14.67-17.4-23.62-24.44
	c-1.95-1.51-2.5-4.21-1.31-6.37l57.21-102.9c1.34-2.41,0.47-5.46-1.94-6.8c0,0,0,0,0,0l-10.49-5.83c-2.41-1.34-5.46-0.47-6.8,1.94
	c0,0,0,0,0,0l-56.79,102.05c-1.25,2.24-4,3.17-6.36,2.15c-10.1-4.39-20.78-7.34-31.7-8.77c-2.52-0.31-4.4-2.46-4.38-5V5
	c0-2.76-2.24-5-5-5h-12c-2.76,0-5,2.24-5,5v118.51c0.02,2.53-1.86,4.68-4.37,5c-10.92,1.43-21.6,4.38-31.7,8.77
	c-2.36,1.02-5.11,0.09-6.36-2.15L134.27,33c-1.34-2.41-4.39-3.28-6.8-1.94c0,0,0,0,0,0L117,36.92c-2.41,1.34-3.28,4.39-1.94,6.8
	c0,0,0,0,0,0l57.2,102.9c1.19,2.15,0.64,4.86-1.3,6.37c-8.97,7.03-16.95,15.26-23.7,24.45c-1.52,2.08-4.38,2.66-6.6,1.34
	l-97.97-58.72c-2.37-1.42-5.44-0.65-6.86,1.72c0,0,0,0,0,0l-6.17,10.29c-1.42,2.37-0.65,5.44,1.72,6.86c0,0,0,0,0,0l98.7,59.17
	c2.11,1.29,2.96,3.93,2,6.21c-4.51,10.91-7.5,22.39-8.87,34.11c-0.29,2.54-2.45,4.45-5,4.43H5c-2.76,0-5,2.24-5,5v12
	c0,2.76,2.24,5,5,5h113.29c2.55-0.02,4.7,1.89,5,4.42c1.37,11.73,4.36,23.21,8.87,34.12c0.96,2.28,0.11,4.91-2,6.2l-98.7,59.17
	c-2.37,1.42-3.14,4.49-1.72,6.86c0,0,0,0,0,0l6.17,10.29c1.42,2.37,4.49,3.14,6.86,1.72c0,0,0,0,0,0l97.95-58.72
	c2.22-1.32,5.08-0.74,6.6,1.35c6.75,9.18,14.73,17.41,23.7,24.44c1.94,1.51,2.49,4.22,1.3,6.37L115,464
	c-1.34,2.41-0.47,5.46,1.94,6.8c0,0,0,0,0,0l10.49,5.83c2.41,1.34,5.46,0.47,6.8-1.94c0,0,0,0,0,0L179,394.16
	c0.33-0.59,0.53-1.24,0.59-1.91c1.71-16.78,5.87-31.46,12.48-44.05C193.28,345.93,192.56,343.11,190.42,341.69z"/>
<path class="st1" d="M741.73,299.81c-18.6-18.45-42.81-22.92-58.81-23.61c-2.44-14-8.12-35.35-21.3-55.67
	c-21.98-33.89-57.32-53.56-102.32-56.89c-44.57-3.3-79.12,8.03-102.69,33.7c-11.28,12.47-19.47,27.41-23.91,43.63
	c-21.15-4.32-55.89-7.1-87.06,10.23c-22.73,12.64-39.33,33.5-49.33,62.08c-19.01-2.38-49.86-2.18-73.79,17.52
	c-20.91,17.23-31.26,44.81-30.77,82c0.46,34.88,11.51,59.94,32.82,74.47c32.4,22.09,77.65,11.08,97.81,4.39
	c14,9.5,46.51,27.7,90.09,27.7c21.25,0,45.15-4.34,70.81-16.12c13.55,9.54,40.82,25.42,72.23,25.42c4.89,0,9.77-0.39,14.6-1.18
	c24.89-4.11,46.47-18.48,64.21-42.82c19.36,5.15,57.36,11.09,88.36-9.85c26.47-17.88,41.13-50.34,43.57-96.46
	C768.07,344.18,759.82,317.81,741.73,299.81z M733.3,376.62c-1.87,35.24-11.66,59.09-29.09,70.87c-24.23,16.32-58.18,6.67-68,3.32
	c-9.14-3.15-19.25,0.34-24.49,8.46c-13.38,20.71-29.2,32.7-47,35.64c-30.86,5.09-61.28-17.51-67.06-22.09
	c-3.72-2.95-8.33-4.55-13.08-4.54c-3.28-0.01-6.51,0.76-9.44,2.23c-72.57,36.63-127.73-1.01-138.05-8.93
	c-5.77-4.46-13.44-5.59-20.25-3c-22.48,8.48-55.27,13.93-73.68,1.38c-11.91-8.12-18.1-24.14-18.41-47.64
	c-0.36-26.67,5.95-45.53,18.73-56.05c18.73-15.41,48.2-10.72,56.78-8.92c10.83,2.26,21.56-4.23,24.58-14.87
	c7.05-25.12,19.44-42.77,36.84-52.45c28.37-15.77,63.96-7.34,74.19-4.34c0.86,0.25,1.73,0.45,2.61,0.59
	c11.46,1.81,22.21-6,24.03-17.46c3.22-20.59,18.89-67.88,94.35-62.28c80.26,5.94,92.77,73.24,94.69,93.72
	c1,11.31,10.85,19.75,22.18,19c8.68-0.55,30.42-0.24,44.76,14C729.61,334.29,734.59,352.24,733.3,376.62z"/>
</svg>
