<?xml version="1.0" encoding="utf-8"?>
<!-- Generator: Adobe Illustrator 23.0.3, SVG Export Plug-In . SVG Version: 6.00 Build 0)  -->
<svg version="1.1" id="Warstwa_1" xmlns="http://www.w3.org/2000/svg" xmlns:xlink="http://www.w3.org/1999/xlink" x="0px" y="0px"
	 viewBox="0 0 574.8 509.3" style="enable-background:new 0 0 574.8 509.3;" xml:space="preserve">
<style type="text/css">
	.st0{fill:#7F7E7E;}
	.st1{fill:#00AFD3;}
</style>
<title>Zasób 11</title>
<rect x="125.6" y="382.4" class="st0" width="200" height="13"/>
<rect x="60.9" y="496.3" class="st0" width="300" height="13"/>
<rect x="163.9" y="439.4" class="st0" width="350" height="13"/>
<path class="st1" d="M550,136.7c-18.6-18.5-42.8-22.9-58.8-23.6c-2.4-14-8.1-35.3-21.3-55.7c-22-33.9-57.3-53.6-102.3-56.9
	c-44.6-3.3-79.1,8-102.7,33.7c-11.3,12.5-19.5,27.4-23.9,43.6c-21.2-4.3-55.9-7.1-87.1,10.2c-22.7,12.6-39.3,33.5-49.3,62.1
	c-19-2.4-49.9-2.2-73.8,17.5C9.8,184.9-0.5,212.5,0,249.7c0.5,34.9,11.5,59.9,32.8,74.5c32.4,22.1,77.7,11.1,97.8,4.4
	c14,9.5,46.5,27.7,90.1,27.7c21.3,0,45.2-4.3,70.8-16.1c13.5,9.5,40.8,25.4,72.2,25.4c4.9,0,9.8-0.4,14.6-1.2
	c24.9-4.1,46.5-18.5,64.2-42.8c19.4,5.2,57.4,11.1,88.4-9.8c26.5-17.9,41.1-50.3,43.6-96.5C576.3,181.1,568.1,154.7,550,136.7z
	 M541.6,213.5c-1.9,35.3-11.7,59.1-29.1,70.9c-24.2,16.3-58.2,6.7-68,3.3c-9.1-3.1-19.2,0.3-24.5,8.5c-13.4,20.7-29.2,32.7-47,35.6
	c-30.9,5.1-61.3-17.5-67.1-22.1c-3.7-2.9-8.4-4.5-13.1-4.5c-3.3,0-6.5,0.8-9.5,2.2c-72.6,36.6-127.7-1-138-8.9
	c-5.8-4.5-13.4-5.6-20.3-3c-22.5,8.5-55.3,13.9-73.7,1.4c-11.9-8.1-18.1-24.1-18.4-47.6c-0.3-26.7,6-45.5,18.8-56.1
	c18.8-15.4,48.2-10.7,56.8-8.9c10.8,2.3,21.6-4.2,24.6-14.9c7-25.1,19.4-42.8,36.8-52.5c28.4-15.8,64-7.3,74.2-4.3
	c0.9,0.2,1.7,0.4,2.6,0.6c11.5,1.8,22.2-6,24-17.5c3.2-20.6,18.9-67.9,94.4-62.3c80.3,5.9,92.8,73.2,94.7,93.7
	c1,11.3,10.9,19.7,22.2,19c8.7-0.5,30.4-0.2,44.8,14C538,171.2,542.9,189.1,541.6,213.5z"/>
</svg>
