<?xml version="1.0" encoding="utf-8"?>
<!-- Generator: Adobe Illustrator 23.0.3, SVG Export Plug-In . SVG Version: 6.00 Build 0)  -->
<svg version="1.1" id="Warstwa_1" xmlns="http://www.w3.org/2000/svg" xmlns:xlink="http://www.w3.org/1999/xlink" x="0px" y="0px"
	 viewBox="0 0 766.5 779.8" style="enable-background:new 0 0 766.5 779.8;" xml:space="preserve">
<style type="text/css">
	.st0{fill:#00AFD3;}
	.st1{fill:#FFD618;}
</style>
<title>Zasób 7</title>
<path class="st0" d="M273.8,649.5l2.8,1.1c2.6,1,5.5-0.3,6.5-2.8c0,0,0,0,0,0l47.3-121c0.9-2.4-0.1-5.1-2.4-6.3
	c-0.9-0.5-1.7-0.9-2.6-1.4c-2.4-1.3-5.5-0.4-6.8,2.1c-0.1,0.2-0.2,0.3-0.2,0.5L270.9,643C269.9,645.6,271.2,648.5,273.8,649.5
	C273.7,649.5,273.8,649.5,273.8,649.5z"/>
<path class="st0" d="M370.4,778.4l2.8,1.1c2.6,1,5.5-0.3,6.5-2.8c0,0,0,0,0,0l92.7-236.8c1-2.6-0.3-5.5-2.8-6.5
	c-1-0.4-2.2-0.5-3.2-0.1c-1.2,0.4-2.4,0.7-3.6,1c-1.5,0.4-2.7,1.5-3.3,3l-91.8,234.7C366.5,774.5,367.8,777.4,370.4,778.4z"/>
<path class="st0" d="M544.7,708.5l2.8,1.1c2.6,1,5.5-0.3,6.5-2.8l64.6-165.1c1-2.6-0.3-5.5-2.9-6.5c-1.4-0.5-3-0.4-4.3,0.4
	c-1.3,0.8-2.6,1.5-3.9,2.2c-1.1,0.6-1.9,1.5-2.3,2.6L541.9,702C540.9,704.6,542.2,707.5,544.7,708.5z"/>
<path class="st1" d="M190.4,341.7c-27.7-18.6-46.1-51-46.1-87.8c0-57.6,44.9-104.4,100.1-104.4c47.9,0,88,35.2,97.8,82
	c0.6,2.7,3.2,4.4,5.9,3.8c0.3-0.1,0.6-0.2,0.9-0.3c3.6-1.5,7.2-2.9,10.9-4.1c2.5-0.8,3.9-3.3,3.4-5.9c-1.6-7.1-3.8-14.1-6.6-20.8
	c-1-2.3-0.1-4.9,2-6.2l98.7-59.2c2.4-1.4,3.1-4.5,1.7-6.9l-6.2-10.3c-1.4-2.4-4.5-3.1-6.8-1.7l-98,58.7c-2.2,1.3-5.1,0.7-6.6-1.3
	c-6.7-9.2-14.7-17.4-23.6-24.4c-1.9-1.5-2.5-4.2-1.3-6.4l57.2-102.9c1.3-2.4,0.5-5.5-1.9-6.8c0,0,0,0,0,0l-10.5-5.8
	c-2.4-1.3-5.5-0.5-6.8,1.9c0,0,0,0,0,0l-56.8,102c-1.3,2.2-4,3.2-6.4,2.2c-10.1-4.4-20.8-7.3-31.7-8.8c-2.5-0.3-4.4-2.5-4.4-5V5
	c0-2.8-2.2-5-5-5h-12c-2.8,0-5,2.2-5,5v118.5c0,2.5-1.9,4.7-4.4,5c-10.9,1.4-21.6,4.4-31.7,8.8c-2.4,1-5.1,0.1-6.4-2.2L134.3,33
	c-1.3-2.4-4.4-3.3-6.8-1.9c0,0,0,0,0,0L117,36.9c-2.4,1.3-3.3,4.4-1.9,6.8c0,0,0,0,0,0l57.2,102.9c1.2,2.2,0.6,4.9-1.3,6.4
	c-9,7-16.9,15.3-23.7,24.5c-1.5,2.1-4.4,2.7-6.6,1.3l-98-58.7c-2.4-1.4-5.4-0.7-6.9,1.7c0,0,0,0,0,0l-6.2,10.3
	c-1.4,2.4-0.7,5.4,1.7,6.9c0,0,0,0,0,0l98.7,59.2c2.1,1.3,3,3.9,2,6.2c-4.5,10.9-7.5,22.4-8.9,34.1c-0.3,2.5-2.4,4.4-5,4.4H5
	c-2.8,0-5,2.2-5,5v12c0,2.8,2.2,5,5,5h113.3c2.5,0,4.7,1.9,5,4.4c1.4,11.7,4.4,23.2,8.9,34.1c1,2.3,0.1,4.9-2,6.2l-98.7,59.2
	c-2.4,1.4-3.1,4.5-1.7,6.9c0,0,0,0,0,0l6.2,10.3c1.4,2.4,4.5,3.1,6.9,1.7c0,0,0,0,0,0l98-58.7c2.2-1.3,5.1-0.7,6.6,1.4
	c6.8,9.2,14.7,17.4,23.7,24.4c1.9,1.5,2.5,4.2,1.3,6.4L115,464c-1.3,2.4-0.5,5.5,1.9,6.8c0,0,0,0,0,0l10.5,5.8
	c2.4,1.3,5.5,0.5,6.8-1.9c0,0,0,0,0,0l44.8-80.5c0.3-0.6,0.5-1.2,0.6-1.9c1.7-16.8,5.9-31.5,12.5-44
	C193.3,345.9,192.6,343.1,190.4,341.7z"/>
<path class="st0" d="M741.7,299.8c-18.6-18.5-42.8-22.9-58.8-23.6c-2.4-14-8.1-35.3-21.3-55.7c-22-33.9-57.3-53.6-102.3-56.9
	c-44.6-3.3-79.1,8-102.7,33.7c-11.3,12.5-19.5,27.4-23.9,43.6c-21.1-4.3-55.9-7.1-87.1,10.2c-22.7,12.6-39.3,33.5-49.3,62.1
	c-19-2.4-49.9-2.2-73.8,17.5c-20.9,17.2-31.3,44.8-30.8,82c0.5,34.9,11.5,59.9,32.8,74.5c32.4,22.1,77.7,11.1,97.8,4.4
	c14,9.5,46.5,27.7,90.1,27.7c21.3,0,45.1-4.3,70.8-16.1c13.5,9.5,40.8,25.4,72.2,25.4c4.9,0,9.8-0.4,14.6-1.2
	c24.9-4.1,46.5-18.5,64.2-42.8c19.4,5.2,57.4,11.1,88.4-9.8c26.5-17.9,41.1-50.3,43.6-96.5C768.1,344.2,759.8,317.8,741.7,299.8z
	 M733.3,376.6c-1.9,35.2-11.7,59.1-29.1,70.9c-24.2,16.3-58.2,6.7-68,3.3c-9.1-3.2-19.2,0.3-24.5,8.5c-13.4,20.7-29.2,32.7-47,35.6
	c-30.9,5.1-61.3-17.5-67.1-22.1c-3.7-2.9-8.3-4.5-13.1-4.5c-3.3,0-6.5,0.8-9.4,2.2c-72.6,36.6-127.7-1-138-8.9
	c-5.8-4.5-13.4-5.6-20.3-3c-22.5,8.5-55.3,13.9-73.7,1.4c-11.9-8.1-18.1-24.1-18.4-47.6c-0.4-26.7,6-45.5,18.7-56
	c18.7-15.4,48.2-10.7,56.8-8.9c10.8,2.3,21.6-4.2,24.6-14.9c7-25.1,19.4-42.8,36.8-52.5c28.4-15.8,64-7.3,74.2-4.3
	c0.9,0.3,1.7,0.4,2.6,0.6c11.5,1.8,22.2-6,24-17.5c3.2-20.6,18.9-67.9,94.3-62.3c80.3,5.9,92.8,73.2,94.7,93.7
	c1,11.3,10.9,19.7,22.2,19c8.7-0.5,30.4-0.2,44.8,14C729.6,334.3,734.6,352.3,733.3,376.6z"/>
</svg>
