<svg xmlns="http://www.w3.org/2000/svg" viewBox="0 0 766.72 663.01"><defs><style>.cls-1{fill:#7f7e7e;}.cls-2{fill:#00afd3;}.cls-3{fill:#ffd618;}</style></defs><title>Zasób 6</title><g id="Warstwa_2" data-name="Warstwa 2"><g id="icons"><path class="cls-1" d="M560.7,465.17c-23.93-19.69-54.78-19.9-73.79-17.51-10-28.59-26.6-49.44-49.33-62.08-31.17-17.33-65.91-14.55-87.06-10.24a107.27,107.27,0,0,0-23.91-43.63c-23.58-25.66-58.13-37-102.69-33.7-45,3.33-80.34,23-102.32,56.89-13.19,20.33-18.86,41.68-21.3,55.68-16,.69-40.22,5.15-58.81,23.61C23.4,452.13,15.15,478.55,17,512.72c2.45,46.13,17.11,78.58,43.57,96.47,31,20.94,69.05,15,88.37,9.84,17.74,24.3,39.31,38.69,64.21,42.79a89.07,89.07,0,0,0,14.6,1.19c31.41,0,58.68-15.88,72.22-25.43,25.66,11.79,49.57,16.12,70.82,16.12,43.58,0,76.09-18.19,90.09-27.7,20.15,6.7,65.41,17.7,97.81-4.39C580,607.08,591,582,591.47,547.14,592,510,581.61,482.38,560.7,465.17Z"/><path class="cls-2" d="M742,299c-18.6-18.45-42.84-22.92-58.82-23.61-2.43-14-8.11-35.35-21.29-55.67-22-33.89-57.36-53.57-102.32-56.89-44.57-3.31-79.12,8-102.69,33.7a107.18,107.18,0,0,0-23.92,43.63c-21.14-4.32-55.89-7.1-87.05,10.23-17.3,9.62-31,24-41,42.94a5,5,0,0,0,2.09,6.72,111.64,111.64,0,0,1,18.38,12.46A5,5,0,0,0,333,310.9c7.14-14.29,16.81-24.9,28.92-31.63,28.37-15.77,64-7.31,74.19-4.34a21.06,21.06,0,0,0,21.19-5.76,21.6,21.6,0,0,0,5.5-11.47c3.35-20.77,19.26-67.49,94.3-61.92,80.26,5.94,92.77,73.24,94.69,93.72a20.89,20.89,0,0,0,22.18,19h0c8.68-.54,30.41-.23,44.76,14,11.12,11,16.1,29,14.81,53.36-1.87,35.24-11.66,59.09-29.1,70.87-24.19,16.35-58.14,6.67-68,3.31A21,21,0,0,0,612,458.48a100.26,100.26,0,0,1-18,21.29,5,5,0,0,0-1.26,5.94,110.62,110.62,0,0,1,7.72,22.07,5,5,0,0,0,7.75,2.91,120.28,120.28,0,0,0,26.32-26.8C653.86,489,691.92,495,722.9,474c26.47-17.88,41.12-50.34,43.57-96.46C768.29,343.41,760,317,742,299Z"/><path class="cls-3" d="M118.29,264.85a5,5,0,0,1,5,4.42,128.37,128.37,0,0,0,8.87,34.12,5,5,0,0,1-2,6.2l-98.7,59.17a5,5,0,0,0-1.72,6.86l6.17,10.29a5,5,0,0,0,6.86,1.72l68.14-40.85a4.94,4.94,0,0,0,1.55-1.47,132.18,132.18,0,0,1,40.44-38.8,5,5,0,0,0,1.89-6.43,107.3,107.3,0,0,1-10.38-46.23c0-57.56,44.91-104.39,100.11-104.39,47.85,0,88,35.18,97.8,82a5,5,0,0,0,6.86,3.55A114.41,114.41,0,0,1,360,230.93a5,5,0,0,0,3.37-5.86,128.23,128.23,0,0,0-6.58-20.78,5,5,0,0,1,2-6.19l98.7-59.17a5,5,0,0,0,1.71-6.86l-6.17-10.29a5,5,0,0,0-6.85-1.72l-97.95,58.72a5,5,0,0,1-6.6-1.34A125.43,125.43,0,0,0,318,153a5,5,0,0,1-1.31-6.37l57.21-102.9a5,5,0,0,0-1.94-6.8l-10.49-5.83a5,5,0,0,0-6.8,1.94L297.88,135.09a5,5,0,0,1-6.36,2.15,117.86,117.86,0,0,0-31.7-8.77,5,5,0,0,1-4.38-5V5a5,5,0,0,0-5-5h-12a5,5,0,0,0-5,5V123.51a5,5,0,0,1-4.37,5,117.86,117.86,0,0,0-31.7,8.77,5,5,0,0,1-6.36-2.15L134.27,33a5,5,0,0,0-6.8-1.94L117,36.92a5,5,0,0,0-1.94,6.8l57.2,102.9a5,5,0,0,1-1.3,6.37,125.43,125.43,0,0,0-23.7,24.45,5,5,0,0,1-6.6,1.34L42.69,120.06a5,5,0,0,0-6.86,1.72l-6.17,10.29a5,5,0,0,0,1.72,6.86l98.7,59.17a5,5,0,0,1,2,6.2,128.47,128.47,0,0,0-8.87,34.12,5,5,0,0,1-5,4.43H5a5,5,0,0,0-5,5v12a5,5,0,0,0,5,5Z"/></g></g></svg>