<svg xmlns="http://www.w3.org/2000/svg" viewBox="0 0 750 708.05"><defs><style>.cls-1{fill:#7f7e7e;}.cls-2{fill:#ffd618;}</style></defs><title>Zasób 10</title><g id="Warstwa_2" data-name="Warstwa 2"><g id="icons"><path class="cls-1" d="M544,302.87c-23.93-19.7-54.78-19.9-73.79-17.52-10-28.58-26.6-49.44-49.33-62.08C389.69,205.94,355,208.72,333.8,213a107.15,107.15,0,0,0-23.91-43.63c-23.57-25.67-58.12-37-102.69-33.71-45,3.33-80.34,23-102.32,56.9C91.7,212.92,86,234.27,83.58,248.27c-16,.69-40.21,5.16-58.81,23.61C6.68,289.82-1.57,316.25.25,350.42c2.44,46.12,17.1,78.58,43.57,96.46,31,20.94,69,15,88.36,9.85,17.74,24.3,39.31,38.68,64.21,42.79A90.16,90.16,0,0,0,211,500.7c31.41,0,58.68-15.88,72.23-25.42,25.66,11.78,49.56,16.11,70.81,16.11,43.58,0,76.09-18.19,90.09-27.69,20.16,6.69,65.41,17.7,97.81-4.4,21.31-14.53,32.35-39.58,32.82-74.46C575.24,347.65,564.89,320.07,544,302.87Z"/><path class="cls-1" d="M725.23,136.73c-18.6-18.45-42.84-22.91-58.81-23.6-2.44-14-8.12-35.35-21.3-55.68C623.14,23.56,587.76,3.89,542.8.56c-44.57-3.3-79.12,8-102.69,33.7A107.21,107.21,0,0,0,416.2,77.89c-21.15-4.32-55.89-7.1-87.06,10.24-17.3,9.62-31,24-41,42.93a5,5,0,0,0,2.09,6.73,111.7,111.7,0,0,1,29.25,22.82,118.88,118.88,0,0,1,23.15,37.74,166.57,166.57,0,0,1,22.55-1.57c23.1,0,44,5.09,62,15.13,22.93,12.75,40.25,32.78,51.6,59.62q3.92-.22,7.76-.22c25.88,0,48.6,7.44,65.7,21.52,15.68,12.89,26.21,30.51,31.51,52.62a5,5,0,0,0,7.76,2.93,120,120,0,0,0,26.31-26.8c19.32,5.15,57.38,11.09,88.36-9.84,26.47-17.89,41.13-50.34,43.57-96.47C751.57,181.1,743.32,154.68,725.23,136.73Z"/><path class="cls-2" d="M123.13,491.13l-24.82,67a5,5,0,0,0,5.25,6.71l33.49-3.79a5,5,0,0,1,5.48,5.85l-7.69,43.32a2,2,0,0,0,3.85,1l21.72-58.64a5,5,0,0,0-5.25-6.7l-32.07,3.62a5,5,0,0,1-5.25-6.71l17-46a5,5,0,0,0-1.25-5.36c-.77-.72-1.53-1.45-2.29-2.19A5,5,0,0,0,123.13,491.13Z"/><path class="cls-2" d="M384.27,600.76l52.49-5.93a5,5,0,0,1,5.43,6.11L427,665.41a2,2,0,0,0,3.82,1.16l29.71-80.21a5,5,0,0,0-5.25-6.71l-51.48,5.82a5,5,0,0,1-5.25-6.71L424.76,508a5,5,0,0,0-6.48-6.41c-1.17.44-2.35.87-3.55,1.3a5,5,0,0,0-3,3L379,594.05A5,5,0,0,0,384.27,600.76Z"/><path class="cls-2" d="M226.49,627.43,292.34,620a5,5,0,0,1,5.41,6.22l-20.57,79.33a2,2,0,0,0,3.81,1.2l35.29-95.24a5,5,0,0,0-5.25-6.7l-65,7.34a5,5,0,0,1-5.25-6.71L273.89,516a5,5,0,0,0-6.76-6.28c-1.2.54-2.43,1.08-3.67,1.6a5,5,0,0,0-2.76,2.88l-39.46,106.5A5,5,0,0,0,226.49,627.43Z"/></g></g></svg>